<?xml version="1.0" encoding="UTF-8"?>
<!DOCTYPE svg PUBLIC "-//W3C//DTD SVG 1.1//EN" "http://www.w3.org/Graphics/SVG/1.1/DTD/svg11.dtd">
<svg xmlns="http://www.w3.org/2000/svg" version="1.1" width="98px" height="100px" style="shape-rendering:geometricPrecision; text-rendering:geometricPrecision; image-rendering:optimizeQuality; fill-rule:evenodd; clip-rule:evenodd" xmlns:xlink="http://www.w3.org/1999/xlink">
<g><path style="opacity:1" fill="#FFFFFF" d="M -0.5,-0.5 C 32.1667,-0.5 64.8333,-0.5 97.5,-0.5C 97.5,27.8333 97.5,56.1667 97.5,84.5C 96.8333,85.1667 96.1667,85.8333 95.5,86.5C 95.5,85.8333 95.5,85.1667 95.5,84.5C 91.9351,83.2134 88.2684,83.2134 84.5,84.5C 81.8333,83.1667 79.1667,83.1667 76.5,84.5C 76.1667,84.5 75.8333,84.5 75.5,84.5C 74.8333,84.5 74.1667,84.5 73.5,84.5C 72.5,84.5 71.5,84.5 70.5,84.5C 71.0937,92.1018 69.7603,92.4351 66.5,85.5C 65.675,84.6143 64.675,84.281 63.5,84.5C 61.6122,86.9878 60.9455,89.9878 61.5,93.5C 61.1667,93.5 60.8333,93.5 60.5,93.5C 59.791,92.596 58.791,92.2627 57.5,92.5C 57.7373,91.209 57.404,90.209 56.5,89.5C 54.712,89.2148 53.0453,89.5481 51.5,90.5C 53.8912,91.8086 53.8912,92.8086 51.5,93.5C 49.2606,93.4257 48.2606,92.259 48.5,90C 48.5852,88.8926 48.9186,87.8926 49.5,87C 51.8473,86.6664 54.1806,86.833 56.5,87.5C 57.0431,87.44 57.3764,87.1067 57.5,86.5C 56.6872,85.1861 55.6872,84.0195 54.5,83C 56.7078,82.8091 58.7078,82.3091 60.5,81.5C 62.1765,80.8166 62.8432,79.4832 62.5,77.5C 63.4305,71.0523 64.7638,64.719 66.5,58.5C 67.404,57.791 67.7373,56.791 67.5,55.5C 69.1439,55.7135 70.6439,55.3802 72,54.5C 72.4828,55.448 72.6495,56.448 72.5,57.5C 72.7058,59.5492 73.5391,59.8825 75,58.5C 80.6881,50.1956 80.8548,41.8623 75.5,33.5C 74.791,32.596 73.791,32.2627 72.5,32.5C 72.7254,34.7159 71.8921,36.3826 70,37.5C 69.8413,35.6573 69.3413,34.9907 68.5,35.5C 66.9669,33.6452 65.3003,31.8119 63.5,30C 59.2505,27.6258 55.0838,25.1258 51,22.5C 50.3333,17.5 50.3333,12.5 51,7.5C 51.5,7 52,6.5 52.5,6C 57.1635,5.05409 61.8301,4.22075 66.5,3.5C 66.5,2.5 66.5,1.5 66.5,0.5C 50.5,0.5 34.5,0.5 18.5,0.5C 18.5,1.5 18.5,2.5 18.5,3.5C 23.0908,4.63817 27.7575,5.4715 32.5,6C 33,6.5 33.5,7 34,7.5C 34.8295,12.8643 34.6628,18.1977 33.5,23.5C 19.0559,29.397 12.5559,40.0637 14,55.5C 15.705,63.4345 17.0383,71.4345 18,79.5C 18.3826,80.056 18.8826,80.3893 19.5,80.5C 19.5,80.8333 19.5,81.1667 19.5,81.5C 19.1667,82.1667 18.8333,82.8333 18.5,83.5C 18.5,83.8333 18.5,84.1667 18.5,84.5C 18.1667,84.5 17.8333,84.5 17.5,84.5C 16.8333,84.5 16.1667,84.5 15.5,84.5C 13.8333,84.5 12.1667,84.5 10.5,84.5C 9.55433,92.2565 7.88766,92.4231 5.5,85C 4.20677,84.51 2.87344,84.3433 1.5,84.5C 1.5,86.8333 1.5,89.1667 1.5,91.5C 0.833333,91.1667 0.166667,90.8333 -0.5,90.5C -0.5,60.1667 -0.5,29.8333 -0.5,-0.5 Z"/></g>
<g><path style="opacity:1" fill="#000000" d="M 68.5,35.5 C 67.7961,37.3442 66.4628,37.8442 64.5,37C 54.2238,25.9253 42.2238,23.592 28.5,30C 22.735,33.7033 19.0683,38.8699 17.5,45.5C 16.8389,47.134 16.5056,48.9674 16.5,51C 16.3603,54.1498 17.027,56.9831 18.5,59.5C 18.9488,65.5258 19.6155,71.5258 20.5,77.5C 33.1711,77.6666 45.8377,77.4999 58.5,77C 60.4326,69.9099 62.0993,62.7432 63.5,55.5C 64.5,55.5 65.5,55.5 66.5,55.5C 66.5,56.5 66.5,57.5 66.5,58.5C 64.7638,64.719 63.4305,71.0523 62.5,77.5C 61.596,78.209 61.2627,79.209 61.5,80.5C 47.5,80.5 33.5,80.5 19.5,80.5C 18.8826,80.3893 18.3826,80.056 18,79.5C 17.0383,71.4345 15.705,63.4345 14,55.5C 12.5559,40.0637 19.0559,29.397 33.5,23.5C 34.6628,18.1977 34.8295,12.8643 34,7.5C 33.5,7 33,6.5 32.5,6C 27.7575,5.4715 23.0908,4.63817 18.5,3.5C 18.5,2.5 18.5,1.5 18.5,0.5C 34.5,0.5 50.5,0.5 66.5,0.5C 66.5,1.5 66.5,2.5 66.5,3.5C 61.8301,4.22075 57.1635,5.05409 52.5,6C 52,6.5 51.5,7 51,7.5C 50.3333,12.5 50.3333,17.5 51,22.5C 55.0838,25.1258 59.2505,27.6258 63.5,30C 65.3003,31.8119 66.9669,33.6452 68.5,35.5 Z"/></g>
<g><path style="opacity:1" fill="#FFFFFF" d="M 68.5,35.5 C 69.3413,34.9907 69.8413,35.6573 70,37.5C 71.8921,36.3826 72.7254,34.7159 72.5,32.5C 73.791,32.2627 74.791,32.596 75.5,33.5C 74.6236,33.3691 73.9569,33.7025 73.5,34.5C 76.4159,39.4157 77.2492,44.749 76,50.5C 75.3299,53.1739 74.1632,55.5073 72.5,57.5C 72.6495,56.448 72.4828,55.448 72,54.5C 70.6439,55.3802 69.1439,55.7135 67.5,55.5C 67.7373,56.791 67.404,57.791 66.5,58.5C 66.5,57.5 66.5,56.5 66.5,55.5C 65.5,55.5 64.5,55.5 63.5,55.5C 62.0993,62.7432 60.4326,69.9099 58.5,77C 45.8377,77.4999 33.1711,77.6666 20.5,77.5C 19.6155,71.5258 18.9488,65.5258 18.5,59.5C 18.3505,58.448 18.5172,57.448 19,56.5C 19.7096,57.9733 20.8762,58.6399 22.5,58.5C 23.2216,58.0825 23.7216,57.4158 24,56.5C 24.3333,56.8333 24.6667,57.1667 25,57.5C 24.5237,52.778 26.357,49.4446 30.5,47.5C 30.8333,47.8333 31.1667,48.1667 31.5,48.5C 27.9556,53.075 27.6222,57.9083 30.5,63C 29.0557,65.4485 27.2224,67.6152 25,69.5C 25.4707,72.483 27.304,74.483 30.5,75.5C 31.3473,73.939 31.0139,72.439 29.5,71C 31.7594,69.2854 33.9261,67.4521 36,65.5C 35.9536,63.6874 36.1203,62.0207 36.5,60.5C 41.9471,63.4481 44.6137,68.1148 44.5,74.5C 45.552,74.6495 46.552,74.4828 47.5,74C 49.731,72.3903 51.731,70.557 53.5,68.5C 51.6351,67.3338 49.9684,67.6671 48.5,69.5C 47.3466,66.5539 46.3466,63.5539 45.5,60.5C 43.1353,58.6578 40.802,56.8244 38.5,55C 40.5049,48.6398 43.8383,48.1398 48.5,53.5C 50.6789,52.2433 52.6789,50.7433 54.5,49C 56.8333,48.6667 59.1667,48.3333 61.5,48C 57.5,47.3333 57.5,46.6667 61.5,46C 57.9984,45.3439 57.9984,44.0105 61.5,42C 60.0039,41.4926 58.8373,41.9926 58,43.5C 58,42.1667 58,40.8333 58,39.5C 57,40.8333 56,42.1667 55,43.5C 54.7508,42.376 54.2508,41.376 53.5,40.5C 51.9784,49.2424 48.3118,50.4091 42.5,44C 49.1534,41.413 50.1534,37.413 45.5,32C 37.8497,30.6481 35.183,33.6481 37.5,41C 33.3634,41.9344 29.3634,43.2678 25.5,45C 23.9315,47.3041 22.7648,49.8041 22,52.5C 21.2917,53.3805 20.4584,54.0472 19.5,54.5C 17.7581,51.8555 17.0914,48.8555 17.5,45.5C 19.0683,38.8699 22.735,33.7033 28.5,30C 42.2238,23.592 54.2238,25.9253 64.5,37C 66.4628,37.8442 67.7961,37.3442 68.5,35.5 Z"/></g>
<g><path style="opacity:1" fill="#000000" d="M 22.5,58.5 C 21.2273,58.0685 20.2273,56.7352 19.5,54.5C 20.4584,54.0472 21.2917,53.3805 22,52.5C 22.7648,49.8041 23.9315,47.3041 25.5,45C 29.3634,43.2678 33.3634,41.9344 37.5,41C 35.183,33.6481 37.8497,30.6481 45.5,32C 50.1534,37.413 49.1534,41.413 42.5,44C 48.3118,50.4091 51.9784,49.2424 53.5,40.5C 54.2508,41.376 54.7508,42.376 55,43.5C 56,42.1667 57,40.8333 58,39.5C 58,40.8333 58,42.1667 58,43.5C 58.8373,41.9926 60.0039,41.4926 61.5,42C 57.9984,44.0105 57.9984,45.3439 61.5,46C 57.5,46.6667 57.5,47.3333 61.5,48C 59.1667,48.3333 56.8333,48.6667 54.5,49C 52.6789,50.7433 50.6789,52.2433 48.5,53.5C 43.8383,48.1398 40.5049,48.6398 38.5,55C 40.802,56.8244 43.1353,58.6578 45.5,60.5C 46.3466,63.5539 47.3466,66.5539 48.5,69.5C 49.9684,67.6671 51.6351,67.3338 53.5,68.5C 51.731,70.557 49.731,72.3903 47.5,74C 46.552,74.4828 45.552,74.6495 44.5,74.5C 44.6137,68.1148 41.9471,63.4481 36.5,60.5C 36.1203,62.0207 35.9536,63.6874 36,65.5C 33.9261,67.4521 31.7594,69.2854 29.5,71C 31.0139,72.439 31.3473,73.939 30.5,75.5C 27.304,74.483 25.4707,72.483 25,69.5C 27.2224,67.6152 29.0557,65.4485 30.5,63C 27.6222,57.9083 27.9556,53.075 31.5,48.5C 31.1667,48.1667 30.8333,47.8333 30.5,47.5C 26.357,49.4446 24.5237,52.778 25,57.5C 24.6667,57.1667 24.3333,56.8333 24,56.5C 23.7216,57.4158 23.2216,58.0825 22.5,58.5 Z"/></g>
<g><path style="opacity:1" fill="#000000" d="M 66.5,41.5 C 69.0859,44.7088 68.9192,48.0422 66,51.5C 66.2012,48.2228 66.3679,44.8895 66.5,41.5 Z"/></g>
<g><path style="opacity:1" fill="#000000" d="M 70.5,38.5 C 71.4959,38.4142 72.3292,38.7476 73,39.5C 73.7907,43.9255 73.4573,48.2589 72,52.5C 71.0347,54.2603 69.868,54.5937 68.5,53.5C 71.5407,48.8428 72.2074,43.8428 70.5,38.5 Z"/></g>
<g><path style="opacity:1" fill="#FFFFFF" d="M 17.5,45.5 C 17.0914,48.8555 17.7581,51.8555 19.5,54.5C 20.2273,56.7352 21.2273,58.0685 22.5,58.5C 20.8762,58.6399 19.7096,57.9733 19,56.5C 18.5172,57.448 18.3505,58.448 18.5,59.5C 17.027,56.9831 16.3603,54.1498 16.5,51C 16.5056,48.9674 16.8389,47.134 17.5,45.5 Z"/></g>
<g><path style="opacity:1" fill="#000000" d="M 75.5,33.5 C 80.8548,41.8623 80.6881,50.1956 75,58.5C 73.5391,59.8825 72.7058,59.5492 72.5,57.5C 74.1632,55.5073 75.3299,53.1739 76,50.5C 77.2492,44.749 76.4159,39.4157 73.5,34.5C 73.9569,33.7025 74.6236,33.3691 75.5,33.5 Z"/></g>
<g><path style="opacity:1" fill="#000000" d="M 69.5,64.5 C 75.5548,63.9421 76.8881,66.1088 73.5,71C 68.7915,71.082 67.4582,68.9154 69.5,64.5 Z"/></g>
<g><path style="opacity:1" fill="#000000" d="M 66.5,74.5 C 67.8333,74.5 69.1667,74.5 70.5,74.5C 70.8333,77.5 69.5,78.8333 66.5,78.5C 66.5,77.1667 66.5,75.8333 66.5,74.5 Z"/></g>
<g><path style="opacity:1" fill="#FFFFFF" d="M 62.5,77.5 C 62.8432,79.4832 62.1765,80.8166 60.5,81.5C 46.8333,81.5 33.1667,81.5 19.5,81.5C 19.5,81.1667 19.5,80.8333 19.5,80.5C 33.5,80.5 47.5,80.5 61.5,80.5C 61.2627,79.209 61.596,78.209 62.5,77.5 Z"/></g>
<g><path style="opacity:1" fill="#000000" d="M 18.5,83.5 C 19.5,83.5 20.5,83.5 21.5,83.5C 21.5,87.8333 21.5,92.1667 21.5,96.5C 20.1667,96.5 18.8333,96.5 17.5,96.5C 17.5,92.5 17.5,88.5 17.5,84.5C 17.8333,84.5 18.1667,84.5 18.5,84.5C 18.5,84.1667 18.5,83.8333 18.5,83.5 Z"/></g>
<g><path style="opacity:1" fill="#FFFFFF" d="M 19.5,81.5 C 33.1667,81.5 46.8333,81.5 60.5,81.5C 58.7078,82.3091 56.7078,82.8091 54.5,83C 55.6872,84.0195 56.6872,85.1861 57.5,86.5C 57.3764,87.1067 57.0431,87.44 56.5,87.5C 53.4465,82.6569 49.9465,82.3236 46,86.5C 44.1925,91.7553 45.8591,95.0886 51,96.5C 54.8821,95.7839 56.7154,93.4505 56.5,89.5C 57.404,90.209 57.7373,91.209 57.5,92.5C 58.791,92.2627 59.791,92.596 60.5,93.5C 58.5354,93.9483 58.2021,94.9483 59.5,96.5C 60.9185,95.9953 61.5852,94.9953 61.5,93.5C 60.9455,89.9878 61.6122,86.9878 63.5,84.5C 63.1774,88.226 63.5108,91.8927 64.5,95.5C 65.3078,93.5767 65.8078,91.5767 66,89.5C 67.6196,91.2415 69.1196,93.0748 70.5,95C 71.448,95.4828 72.448,95.6495 73.5,95.5C 73.5,91.8333 73.5,88.1667 73.5,84.5C 74.1667,84.5 74.8333,84.5 75.5,84.5C 75.5,88.5 75.5,92.5 75.5,96.5C 78.7131,96.81 81.7131,96.4767 84.5,95.5C 83.3218,94.0014 81.6551,93.0014 79.5,92.5C 80.6888,91.5713 82.0222,91.238 83.5,91.5C 83.5,90.5 83.5,89.5 83.5,88.5C 78.1667,87.8333 78.1667,87.1667 83.5,86.5C 84.3382,86.1583 84.6716,85.4916 84.5,84.5C 88.2684,83.2134 91.9351,83.2134 95.5,84.5C 92.4281,84.1826 89.4281,84.5159 86.5,85.5C 87.325,86.3857 88.325,86.719 89.5,86.5C 89.5,89.8333 89.5,93.1667 89.5,96.5C 90.5,96.5 91.5,96.5 92.5,96.5C 92.5,93.1667 92.5,89.8333 92.5,86.5C 93.5,86.5 94.5,86.5 95.5,86.5C 96.1667,85.8333 96.8333,85.1667 97.5,84.5C 97.5,89.5 97.5,94.5 97.5,99.5C 64.8333,99.5 32.1667,99.5 -0.5,99.5C -0.5,96.5 -0.5,93.5 -0.5,90.5C 0.166667,90.8333 0.833333,91.1667 1.5,91.5C 1.23798,92.9778 1.57131,94.3112 2.5,95.5C 3.86162,86.2255 5.19496,86.2255 6.5,95.5C 7.82207,95.67 8.98873,95.3366 10,94.5C 11.9499,87.9359 12.7833,88.2692 12.5,95.5C 13.5,95.5 14.5,95.5 15.5,95.5C 15.5,91.8333 15.5,88.1667 15.5,84.5C 16.1667,84.5 16.8333,84.5 17.5,84.5C 17.5,88.5 17.5,92.5 17.5,96.5C 18.8333,96.5 20.1667,96.5 21.5,96.5C 21.5,92.1667 21.5,87.8333 21.5,83.5C 20.5,83.5 19.5,83.5 18.5,83.5C 18.8333,82.8333 19.1667,82.1667 19.5,81.5 Z"/></g>
<g><path style="opacity:1" fill="#000000" d="M 95.5,84.5 C 95.5,85.1667 95.5,85.8333 95.5,86.5C 94.5,86.5 93.5,86.5 92.5,86.5C 92.5,89.8333 92.5,93.1667 92.5,96.5C 91.5,96.5 90.5,96.5 89.5,96.5C 89.5,93.1667 89.5,89.8333 89.5,86.5C 88.325,86.719 87.325,86.3857 86.5,85.5C 89.4281,84.5159 92.4281,84.1826 95.5,84.5 Z"/></g>
<g><path style="opacity:1" fill="#000000" d="M 63.5,84.5 C 64.675,84.281 65.675,84.6143 66.5,85.5C 69.7603,92.4351 71.0937,92.1018 70.5,84.5C 71.5,84.5 72.5,84.5 73.5,84.5C 73.5,88.1667 73.5,91.8333 73.5,95.5C 72.448,95.6495 71.448,95.4828 70.5,95C 69.1196,93.0748 67.6196,91.2415 66,89.5C 65.8078,91.5767 65.3078,93.5767 64.5,95.5C 63.5108,91.8927 63.1774,88.226 63.5,84.5 Z"/></g>
<g><path style="opacity:1" fill="#000000" d="M 27.5,84.5 C 28.209,83.596 29.209,83.2627 30.5,83.5C 30.815,87.3714 30.4816,91.0381 29.5,94.5C 30.069,90.6707 29.4023,87.3373 27.5,84.5 Z"/></g>
<g><path style="opacity:1" fill="#000000" d="M 76.5,84.5 C 79.3878,83.9898 81.7211,84.6565 83.5,86.5C 78.1667,87.1667 78.1667,87.8333 83.5,88.5C 83.5,89.5 83.5,90.5 83.5,91.5C 82.0222,91.238 80.6888,91.5713 79.5,92.5C 81.6551,93.0014 83.3218,94.0014 84.5,95.5C 81.8333,95.5 79.1667,95.5 76.5,95.5C 76.5,91.8333 76.5,88.1667 76.5,84.5 Z"/></g>
<g><path style="opacity:1" fill="#000000" d="M 56.5,87.5 C 54.1806,86.833 51.8473,86.6664 49.5,87C 48.9186,87.8926 48.5852,88.8926 48.5,90C 48.2606,92.259 49.2606,93.4257 51.5,93.5C 53.8912,92.8086 53.8912,91.8086 51.5,90.5C 53.0453,89.5481 54.712,89.2148 56.5,89.5C 56.7154,93.4505 54.8821,95.7839 51,96.5C 45.8591,95.0886 44.1925,91.7553 46,86.5C 49.9465,82.3236 53.4465,82.6569 56.5,87.5 Z"/></g>
<g><path style="opacity:1" fill="#000000" d="M 18.5,84.5 C 19.7868,85.8714 20.4535,87.7047 20.5,90C 20.1667,91.8333 19.8333,93.6667 19.5,95.5C 18.5108,91.8927 18.1774,88.226 18.5,84.5 Z"/></g>
<g><path style="opacity:1" fill="#000000" d="M 76.5,84.5 C 79.1667,83.1667 81.8333,83.1667 84.5,84.5C 84.6716,85.4916 84.3382,86.1583 83.5,86.5C 81.7211,84.6565 79.3878,83.9898 76.5,84.5 Z"/></g>
<g><path style="opacity:1" fill="#000000" d="M 15.5,84.5 C 15.5,88.1667 15.5,91.8333 15.5,95.5C 14.5,95.5 13.5,95.5 12.5,95.5C 12.7833,88.2692 11.9499,87.9359 10,94.5C 8.98873,95.3366 7.82207,95.67 6.5,95.5C 5.19496,86.2255 3.86162,86.2255 2.5,95.5C 1.57131,94.3112 1.23798,92.9778 1.5,91.5C 1.5,89.1667 1.5,86.8333 1.5,84.5C 2.87344,84.3433 4.20677,84.51 5.5,85C 7.88766,92.4231 9.55433,92.2565 10.5,84.5C 12.1667,84.5 13.8333,84.5 15.5,84.5 Z"/></g>
<g><path style="opacity:1" fill="#000000" d="M 32.5,84.5 C 33.5,84.5 34.5,84.5 35.5,84.5C 35.3359,87.1873 35.5026,89.854 36,92.5C 37.3561,93.3802 38.8561,93.7135 40.5,93.5C 40.5,90.5 40.5,87.5 40.5,84.5C 41.5,84.5 42.5,84.5 43.5,84.5C 43.6646,87.5184 43.498,90.5184 43,93.5C 39.6667,97.5 36.3333,97.5 33,93.5C 32.502,90.5184 32.3354,87.5184 32.5,84.5 Z"/></g>
<g><path style="opacity:1" fill="#000000" d="M 60.5,93.5 C 60.8333,93.5 61.1667,93.5 61.5,93.5C 61.5852,94.9953 60.9185,95.9953 59.5,96.5C 58.2021,94.9483 58.5354,93.9483 60.5,93.5 Z"/></g>
<g><path style="opacity:1" fill="#000000" d="M 27.5,84.5 C 29.4023,87.3373 30.069,90.6707 29.5,94.5C 27.9894,96.4411 25.9894,96.9411 23.5,96C 23.0426,95.586 22.7093,95.086 22.5,94.5C 24.0453,93.5481 25.712,93.2148 27.5,93.5C 27.5,90.5 27.5,87.5 27.5,84.5 Z"/></g>
<g><path style="opacity:1" fill="#000000" d="M 75.5,84.5 C 75.8333,84.5 76.1667,84.5 76.5,84.5C 76.5,88.1667 76.5,91.8333 76.5,95.5C 79.1667,95.5 81.8333,95.5 84.5,95.5C 81.7131,96.4767 78.7131,96.81 75.5,96.5C 75.5,92.5 75.5,88.5 75.5,84.5 Z"/></g>
</svg>
