<?xml version="1.0" encoding="UTF-8"?>
<!DOCTYPE svg PUBLIC "-//W3C//DTD SVG 1.1//EN" "http://www.w3.org/Graphics/SVG/1.1/DTD/svg11.dtd">
<svg xmlns="http://www.w3.org/2000/svg" version="1.1" width="922px" height="933px" style="shape-rendering:geometricPrecision; text-rendering:geometricPrecision; image-rendering:optimizeQuality; fill-rule:evenodd; clip-rule:evenodd" xmlns:xlink="http://www.w3.org/1999/xlink">
<g><path style="opacity:1" fill="#fefdea" d="M -0.5,-0.5 C 306.833,-0.5 614.167,-0.5 921.5,-0.5C 921.5,310.5 921.5,621.5 921.5,932.5C 614.167,932.5 306.833,932.5 -0.5,932.5C -0.5,621.5 -0.5,310.5 -0.5,-0.5 Z"/></g>
<g><path style="opacity:1" fill="#fdfdfd" d="M 631.5,32.5 C 637.528,25.0006 636.528,18.6673 628.5,13.5C 479.903,12.3351 331.236,12.1684 182.5,13C 181.584,13.2784 180.918,13.7784 180.5,14.5C 180.167,14.5 179.833,14.5 179.5,14.5C 179.062,14.5654 178.728,14.3988 178.5,14C 179.328,13.0853 180.328,12.4186 181.5,12C 330.5,11.3333 479.5,11.3333 628.5,12C 635.433,15.3718 637.933,20.8718 636,28.5C 635.252,30.751 633.752,32.0844 631.5,32.5 Z"/></g>
<g><path style="opacity:1" fill="#0d100b" d="M 628.5,13.5 C 479.627,14.1682 330.627,14.8348 181.5,15.5C 180.893,15.3764 180.56,15.0431 180.5,14.5C 180.918,13.7784 181.584,13.2784 182.5,13C 331.236,12.1684 479.903,12.3351 628.5,13.5 Z"/></g>
<g><path style="opacity:1" fill="#09100a" d="M 628.5,13.5 C 636.528,18.6673 637.528,25.0006 631.5,32.5C 627.361,34.4546 623.028,35.9546 618.5,37C 591.426,42.6865 564.426,48.5198 537.5,54.5C 535.901,54.2322 534.568,54.5655 533.5,55.5C 519.47,57.0038 506.137,60.8372 493.5,67C 486.738,71.0949 482.238,76.9282 480,84.5C 479.023,125.546 479.356,166.546 481,207.5C 482.852,214.034 486.352,219.534 491.5,224C 519.678,236.422 547.011,250.422 573.5,266C 600.871,283.703 624.038,305.87 643,332.5C 648.454,341.321 647.287,349.154 639.5,356C 633.245,359.158 626.912,359.325 620.5,356.5C 605.712,340.04 589.712,325.04 572.5,311.5C 533.669,279.205 489.003,259.872 438.5,253.5C 369.9,244.4 307.567,260.234 251.5,301C 246.572,304.949 241.906,309.116 237.5,313.5C 193.72,351.38 168.553,399.38 162,457.5C 161.5,469.495 161.333,481.495 161.5,493.5C 161.953,505.476 163.62,517.143 166.5,528.5C 177.007,591.551 187.841,654.551 199,717.5C 199.272,722.438 201.772,725.604 206.5,727C 321.833,727.667 437.167,727.667 552.5,727C 553.527,726.487 554.527,725.987 555.5,725.5C 557.173,724.657 558.34,723.324 559,721.5C 565.31,691.447 571.81,661.447 578.5,631.5C 586.013,596.105 593.846,560.771 602,525.5C 604,519.833 608,516.833 614,516.5C 624.702,517.37 631.202,523.036 633.5,533.5C 628.83,554.846 624.163,576.179 619.5,597.5C 619.5,597.833 619.5,598.167 619.5,598.5C 608.212,647.754 596.712,697.087 585,746.5C 582.463,752.215 578.296,755.882 572.5,757.5C 444.166,757.667 315.833,757.5 187.5,757C 183.155,755.819 179.822,753.319 177.5,749.5C 175.059,743.405 173.392,737.071 172.5,730.5C 166.618,699.873 160.951,669.206 155.5,638.5C 154.962,634.476 154.295,630.476 153.5,626.5C 146.012,585.903 138.845,545.236 132,504.5C 124.004,437.014 140.504,376.347 181.5,322.5C 192.464,308.536 204.797,295.869 218.5,284.5C 247.899,260.784 280.233,241.617 315.5,227C 324.094,221.743 329.594,214.243 332,204.5C 332.667,164.167 332.667,123.833 332,83.5C 329.417,73.9152 323.584,67.0819 314.5,63C 269.933,54.3534 225.6,44.6868 181.5,34C 175.268,29.3511 173.935,23.5177 177.5,16.5C 178.5,16.1667 179.167,15.5 179.5,14.5C 179.833,14.5 180.167,14.5 180.5,14.5C 180.56,15.0431 180.893,15.3764 181.5,15.5C 330.627,14.8348 479.627,14.1682 628.5,13.5 Z"/></g>
<g><path style="opacity:1" fill="#edeee9" d="M 631.5,32.5 C 631.426,34.4109 630.426,35.5776 628.5,36C 598.171,43.5649 567.838,49.7315 537.5,54.5C 564.426,48.5198 591.426,42.6865 618.5,37C 623.028,35.9546 627.361,34.4546 631.5,32.5 Z"/></g>
<g><path style="opacity:1" fill="#f3f3f0" d="M 533.5,55.5 C 537.449,55.6932 537.449,56.1932 533.5,57C 519.895,58.6502 506.895,62.3169 494.5,68C 492.093,70.2848 489.593,72.4514 487,74.5C 485.054,77.1388 484.054,80.1388 484,83.5C 483.333,80.8333 482.667,80.8333 482,83.5C 480.363,122.461 480.03,161.461 481,200.5C 482.109,211.895 487.609,220.395 497.5,226C 536.961,241.051 572.961,261.717 605.5,288C 620.194,301.611 633.36,316.445 645,332.5C 651.02,347.796 646.02,357.129 630,360.5C 627.815,360.079 625.649,359.579 623.5,359C 622.058,358.623 621.058,357.79 620.5,356.5C 626.912,359.325 633.245,359.158 639.5,356C 647.287,349.154 648.454,341.321 643,332.5C 624.038,305.87 600.871,283.703 573.5,266C 547.011,250.422 519.678,236.422 491.5,224C 486.352,219.534 482.852,214.034 481,207.5C 479.356,166.546 479.023,125.546 480,84.5C 482.238,76.9282 486.738,71.0949 493.5,67C 506.137,60.8372 519.47,57.0038 533.5,55.5 Z"/></g>
<g><path style="opacity:1" fill="#f6f6f2" d="M 177.5,16.5 C 173.935,23.5177 175.268,29.3511 181.5,34C 225.6,44.6868 269.933,54.3534 314.5,63C 323.584,67.0819 329.417,73.9152 332,83.5C 332.667,123.833 332.667,164.167 332,204.5C 329.594,214.243 324.094,221.743 315.5,227C 280.233,241.617 247.899,260.784 218.5,284.5C 219.203,282.284 220.536,280.451 222.5,279C 250.883,257.673 281.549,240.006 314.5,226C 324.207,219.747 329.707,210.914 331,199.5C 331.667,161.5 331.667,123.5 331,85.5C 328.739,74.9097 322.572,67.743 312.5,64C 268.932,55.6867 225.599,46.3533 182.5,36C 176.544,33.7667 173.544,29.4334 173.5,23C 173.909,20.6793 174.743,18.5126 176,16.5C 176.69,15.2617 177.19,15.2617 177.5,16.5 Z"/></g>
<g><path style="opacity:1" fill="#f4f4ef" d="M 438.5,253.5 C 489.003,259.872 533.669,279.205 572.5,311.5C 545.35,290.753 515.35,274.919 482.5,264C 466.685,259.622 452.018,256.122 438.5,253.5 Z"/></g>
<g><path style="opacity:1" fill="#09100a" d="M 448.5,316.5 C 465.526,341.052 465.692,365.719 449,390.5C 435.818,405.172 419.318,412.338 399.5,412C 400.91,413.372 402.577,414.205 404.5,414.5C 423.924,428.724 443.591,442.724 463.5,456.5C 476.297,448.015 488.464,438.681 500,428.5C 500.14,416.872 500.807,405.205 502,393.5C 502.123,388.794 503.623,384.628 506.5,381C 510.025,380.342 512.859,381.509 515,384.5C 516.248,393.425 516.915,402.425 517,411.5C 520.881,409.554 524.214,406.888 527,403.5C 532.667,395.167 538.333,386.833 544,378.5C 546.727,375.269 549.894,372.603 553.5,370.5C 555.972,371.939 557.305,374.106 557.5,377C 556.87,379.89 556.037,382.724 555,385.5C 549.877,394.915 544.377,404.082 538.5,413C 541.017,413.257 543.35,412.59 545.5,411C 556.419,402.623 567.919,395.123 580,388.5C 584.126,390.132 585.459,393.132 584,397.5C 573.784,407.351 563.284,416.851 552.5,426C 561.701,425.872 570.868,425.038 580,423.5C 582.442,423.482 584.608,424.149 586.5,425.5C 589.003,431.196 587.337,435.029 581.5,437C 571.716,438.464 562.049,440.464 552.5,443C 561.638,443.941 570.638,445.608 579.5,448C 582.167,451 582.167,454 579.5,457C 576.12,458.084 572.62,458.584 569,458.5C 553.508,457.483 538.008,457.316 522.5,458C 507.5,469.667 492.5,481.333 477.5,493C 469.466,500.262 460.466,501.929 450.5,498C 432.333,486.5 414.167,475 396,463.5C 384.5,483 373,502.5 361.5,522C 381.172,534.171 401.172,545.838 421.5,557C 423.96,558.458 426.127,560.291 428,562.5C 438.477,592.099 448.644,621.765 458.5,651.5C 469.435,645.199 480.769,639.699 492.5,635C 496.856,634.289 500.856,635.123 504.5,637.5C 508.723,642.909 508.39,648.076 503.5,653C 484.678,667.244 465.678,681.244 446.5,695C 438.583,700.207 431.417,699.373 425,692.5C 418.901,674.698 412.734,657.031 406.5,639.5C 401.969,624.096 397.135,608.763 392,593.5C 374.333,584.5 356.667,575.5 339,566.5C 340.838,578.197 343.171,589.864 346,601.5C 346.879,606.287 346.545,610.953 345,615.5C 324.035,632.725 303.201,650.058 282.5,667.5C 287.916,675.33 293.083,683.33 298,691.5C 301.749,703.747 297.249,709.58 284.5,709C 278.393,705.388 272.727,701.221 267.5,696.5C 257.527,687.365 247.361,678.365 237,669.5C 233.667,664.5 233.667,659.5 237,654.5C 245.062,646.27 253.228,638.27 261.5,630.5C 272.146,620.521 282.479,610.188 292.5,599.5C 284.311,579.101 276.811,558.434 270,537.5C 267.764,529.049 268.097,520.716 271,512.5C 280.949,490.62 290.283,468.62 299,446.5C 290.553,449.406 282.053,452.239 273.5,455C 269.49,456.343 265.99,458.509 263,461.5C 255.08,475.005 247.413,488.672 240,502.5C 239.322,504.598 239.489,506.598 240.5,508.5C 240.833,509.833 241.167,511.167 241.5,512.5C 245.212,521.134 246.712,530.134 246,539.5C 243.294,542.978 240.294,543.311 237,540.5C 234.599,533.796 232.099,527.129 229.5,520.5C 227.337,528.484 225.17,536.484 223,544.5C 216.804,557.043 213.304,556.376 212.5,542.5C 213.468,536.509 213.968,530.509 214,524.5C 208.913,532.341 203.58,540.008 198,547.5C 189.992,551.952 187.659,549.618 191,540.5C 195.34,532.813 199.34,525.146 203,517.5C 197.458,523.853 190.625,527.353 182.5,528C 181.643,527.311 180.977,526.478 180.5,525.5C 181.804,522.87 183.47,520.537 185.5,518.5C 190.526,513.805 195.526,509.139 200.5,504.5C 203.13,502.372 205.63,500.039 208,497.5C 217.643,474.9 227.476,452.4 237.5,430C 243.04,426.73 248.707,423.73 254.5,421C 277.422,412.137 300.422,403.47 323.5,395C 334.664,391.745 345.998,390.745 357.5,392C 344.603,377.965 339.77,361.465 343,342.5C 344.437,335.679 346.937,329.346 350.5,323.5C 368.924,297.081 393.59,288.914 424.5,299C 434.108,302.796 442.108,308.629 448.5,316.5 Z"/></g>
<g><path style="opacity:1" fill="#0a100a" d="M 703.5,312.5 C 708.503,312.085 712.67,313.752 716,317.5C 763.95,398.699 760.117,477.366 704.5,553.5C 697.195,559.528 691.028,558.528 686,550.5C 684.988,544.706 686.488,539.706 690.5,535.5C 698.076,526.9 704.076,517.233 708.5,506.5C 727.681,468.052 732.515,427.719 723,385.5C 717.586,364.676 708.92,345.342 697,327.5C 696.333,324.5 696.333,321.5 697,318.5C 697.66,316.676 698.827,315.343 700.5,314.5C 701.71,314.068 702.71,313.401 703.5,312.5 Z"/></g>
<g><path style="opacity:1" fill="#f4f4ef" d="M 404.5,414.5 C 402.577,414.205 400.91,413.372 399.5,412C 419.318,412.338 435.818,405.172 449,390.5C 465.692,365.719 465.526,341.052 448.5,316.5C 448.435,316.062 448.601,315.728 449,315.5C 467.354,340.009 468.02,365.009 451,390.5C 438.255,404.326 422.755,412.326 404.5,414.5 Z"/></g>
<g><path style="opacity:1" fill="#f1f1ec" d="M 690.5,535.5 C 686.488,539.706 684.988,544.706 686,550.5C 691.028,558.528 697.195,559.528 704.5,553.5C 760.117,477.366 763.95,398.699 716,317.5C 712.67,313.752 708.503,312.085 703.5,312.5C 704.69,311.324 707.357,311.157 711.5,312C 713.624,313.122 715.457,314.622 717,316.5C 760.241,385.977 762.241,456.643 723,528.5C 717.727,537.437 712.06,546.103 706,554.5C 699.003,561.254 692.336,560.92 686,553.5C 682.514,546.262 683.847,539.928 690,534.5C 690.399,534.728 690.565,535.062 690.5,535.5 Z"/></g>
<g><path style="opacity:1" fill="#0b110b" d="M 626.5,393.5 C 626.5,392.833 626.5,392.167 626.5,391.5C 629.634,386.881 633.968,385.381 639.5,387C 641.286,387.785 642.786,388.951 644,390.5C 655.899,417.964 654.232,444.631 639,470.5C 636.399,474.555 633.232,478.055 629.5,481C 619.333,482.833 615.167,478.667 617,468.5C 633.788,447.535 637.122,424.535 627,399.5C 626.505,397.527 626.338,395.527 626.5,393.5 Z"/></g>
<g><path style="opacity:1" fill="#f3f3ee" d="M 672.5,355.5 C 677.067,355.521 680.901,357.188 684,360.5C 705.258,402.074 705.924,444.074 686,486.5C 680.672,496.823 674.172,506.323 666.5,515C 663.751,516.084 660.918,516.917 658,517.5C 650.228,514.752 647.228,509.418 649,501.5C 654.719,493.441 660.052,485.107 665,476.5C 675.988,452.914 679.321,428.248 675,402.5C 671.231,390.475 667.064,378.641 662.5,367C 663.557,361.114 666.89,357.281 672.5,355.5 Z"/></g>
<g><path style="opacity:1" fill="#0a100a" d="M 670.5,357.5 C 674.463,357.089 678.13,357.922 681.5,360C 695.632,384.269 701.132,410.436 698,438.5C 694.915,467.116 684.081,492.283 665.5,514C 656.97,517.235 651.637,514.401 649.5,505.5C 650.036,503.058 650.869,500.725 652,498.5C 678.073,464.734 684.74,427.4 672,386.5C 668.922,380.352 666.422,374.019 664.5,367.5C 664.474,362.877 666.474,359.544 670.5,357.5 Z"/></g>
<g><path style="opacity:1" fill="#efefea" d="M 350.5,323.5 C 346.937,329.346 344.437,335.679 343,342.5C 339.77,361.465 344.603,377.965 357.5,392C 345.998,390.745 334.664,391.745 323.5,395C 300.422,403.47 277.422,412.137 254.5,421C 248.707,423.73 243.04,426.73 237.5,430C 227.476,452.4 217.643,474.9 208,497.5C 205.63,500.039 203.13,502.372 200.5,504.5C 200.062,504.565 199.728,504.399 199.5,504C 204.548,500.285 208.048,495.452 210,489.5C 218.596,468.698 227.763,448.198 237.5,428C 249.132,421.898 261.132,416.565 273.5,412C 292.249,404.555 311.916,397.555 332.5,391C 339.5,390.667 346.5,390.333 353.5,390C 338.002,368.521 336.502,346.021 349,322.5C 349.383,323.056 349.883,323.389 350.5,323.5 Z"/></g>
<g><path style="opacity:1" fill="#f2f2ed" d="M 700.5,314.5 C 698.827,315.343 697.66,316.676 697,318.5C 696.333,321.5 696.333,324.5 697,327.5C 708.92,345.342 717.586,364.676 723,385.5C 732.515,427.719 727.681,468.052 708.5,506.5C 713.344,494.804 717.511,482.804 721,470.5C 732.816,418.723 724.149,370.723 695,326.5C 694.135,321.761 695.302,317.594 698.5,314C 699.437,313.308 700.103,313.475 700.5,314.5 Z"/></g>
<g><path style="opacity:1" fill="#f2f2ee" d="M 237.5,313.5 C 208.376,340.316 186.876,372.982 173,411.5C 165.384,438.443 161.551,465.777 161.5,493.5C 161.333,481.495 161.5,469.495 162,457.5C 168.553,399.38 193.72,351.38 237.5,313.5 Z"/></g>
<g><path style="opacity:1" fill="#f1f1ec" d="M 626.5,393.5 C 626.338,395.527 626.505,397.527 627,399.5C 637.122,424.535 633.788,447.535 617,468.5C 615.167,478.667 619.333,482.833 629.5,481C 633.232,478.055 636.399,474.555 639,470.5C 654.232,444.631 655.899,417.964 644,390.5C 642.786,388.951 641.286,387.785 639.5,387C 633.968,385.381 629.634,386.881 626.5,391.5C 626.483,388.605 628.15,386.438 631.5,385C 636.496,383.834 640.829,385 644.5,388.5C 658.816,419.971 655.983,449.638 636,477.5C 630.259,484.594 623.926,485.26 617,479.5C 613.567,473.984 614.067,468.817 618.5,464C 616.071,463.549 615.904,462.715 618,461.5C 618.414,461.957 618.914,462.291 619.5,462.5C 630.183,447.435 633.683,430.769 630,412.5C 629.261,408.615 627.927,404.948 626,401.5C 625.199,398.633 625.366,395.966 626.5,393.5 Z"/></g>
<g><path style="opacity:1" fill="#f5f5f1" d="M 261.5,630.5 C 270.952,619.878 280.618,609.378 290.5,599C 280.285,575.356 272.285,551.023 266.5,526C 266.821,521.728 267.654,517.562 269,513.5C 278.517,492.019 287.684,470.852 296.5,450C 284.757,451.81 273.923,455.977 264,462.5C 258.814,471.602 253.814,480.269 249,488.5C 245.264,494.951 242.431,501.617 240.5,508.5C 239.489,506.598 239.322,504.598 240,502.5C 247.413,488.672 255.08,475.005 263,461.5C 265.99,458.509 269.49,456.343 273.5,455C 282.053,452.239 290.553,449.406 299,446.5C 290.283,468.62 280.949,490.62 271,512.5C 268.097,520.716 267.764,529.049 270,537.5C 276.811,558.434 284.311,579.101 292.5,599.5C 282.479,610.188 272.146,620.521 261.5,630.5 Z"/></g>
<g><path style="opacity:1" fill="#efeeea" d="M 181.5,322.5 C 140.504,376.347 124.004,437.014 132,504.5C 138.845,545.236 146.012,585.903 153.5,626.5C 151.537,624.033 150.371,621.033 150,617.5C 142.784,576.87 135.784,536.204 129,495.5C 124.183,430.638 141.517,372.638 181,321.5C 181.399,321.728 181.565,322.062 181.5,322.5 Z"/></g>
<g><path style="opacity:1" fill="#f2f2ee" d="M 619.5,597.5 C 624.163,576.179 628.83,554.846 633.5,533.5C 631.202,523.036 624.702,517.37 614,516.5C 608,516.833 604,519.833 602,525.5C 593.846,560.771 586.013,596.105 578.5,631.5C 577.861,630.903 577.528,630.07 577.5,629C 584.823,593.718 592.656,558.551 601,523.5C 607.908,513.654 616.408,512.154 626.5,519C 631.698,522.897 634.698,528.064 635.5,534.5C 630.68,554.78 626.014,575.113 621.5,595.5C 621.253,596.713 620.586,597.38 619.5,597.5 Z"/></g>
<g><path style="opacity:1" fill="#f2f2ed" d="M 241.5,512.5 C 242.75,512.577 243.583,513.244 244,514.5C 245.181,519.56 246.515,524.56 248,529.5C 250.208,536.745 247.875,541.745 241,544.5C 239.441,543.971 237.941,543.304 236.5,542.5C 234.036,537.338 231.869,532.004 230,526.5C 227.781,535.16 224.781,543.494 221,551.5C 217.725,556.741 214.725,556.741 212,551.5C 211.667,545.167 211.333,538.833 211,532.5C 206.863,538.604 202.363,544.437 197.5,550C 190.229,553.563 187.062,551.396 188,543.5C 191.365,537.113 194.365,530.78 197,524.5C 192.806,528.187 187.973,530.02 182.5,530C 178.466,525.781 178.799,521.781 183.5,518C 184.437,517.308 185.103,517.475 185.5,518.5C 183.47,520.537 181.804,522.87 180.5,525.5C 180.977,526.478 181.643,527.311 182.5,528C 190.625,527.353 197.458,523.853 203,517.5C 199.34,525.146 195.34,532.813 191,540.5C 187.659,549.618 189.992,551.952 198,547.5C 203.58,540.008 208.913,532.341 214,524.5C 213.968,530.509 213.468,536.509 212.5,542.5C 213.304,556.376 216.804,557.043 223,544.5C 225.17,536.484 227.337,528.484 229.5,520.5C 232.099,527.129 234.599,533.796 237,540.5C 240.294,543.311 243.294,542.978 246,539.5C 246.712,530.134 245.212,521.134 241.5,512.5 Z"/></g>
<g><path style="opacity:1" fill="#f2f2ee" d="M 504.5,637.5 C 500.856,635.123 496.856,634.289 492.5,635C 480.769,639.699 469.435,645.199 458.5,651.5C 448.644,621.765 438.477,592.099 428,562.5C 426.127,560.291 423.96,558.458 421.5,557C 401.172,545.838 381.172,534.171 361.5,522C 373,502.5 384.5,483 396,463.5C 414.167,475 432.333,486.5 450.5,498C 460.466,501.929 469.466,500.262 477.5,493C 492.5,481.333 507.5,469.667 522.5,458C 538.008,457.316 553.508,457.483 569,458.5C 572.62,458.584 576.12,458.084 579.5,457C 582.167,454 582.167,451 579.5,448C 570.638,445.608 561.638,443.941 552.5,443C 562.049,440.464 571.716,438.464 581.5,437C 587.337,435.029 589.003,431.196 586.5,425.5C 586.81,424.262 587.31,424.262 588,425.5C 590.367,429.999 589.533,433.832 585.5,437C 578.65,439.199 571.65,440.865 564.5,442C 570.764,443.562 576.764,445.728 582.5,448.5C 583.87,456.806 580.204,460.806 571.5,460.5C 555.179,459.409 538.846,459.243 522.5,460C 507.833,471.333 493.167,482.667 478.5,494C 474.759,496.732 470.759,499.066 466.5,501C 461.833,501.667 457.167,501.667 452.5,501C 434.5,489.667 416.5,478.333 398.5,467C 397.5,466.333 396.5,466.333 395.5,467C 385.473,484.217 375.306,501.383 365,518.5C 364.28,520.112 364.446,521.612 365.5,523C 387.249,534.954 408.416,547.787 429,561.5C 430.711,563.956 432.044,566.623 433,569.5C 441.493,596.411 449.993,622.911 458.5,649C 468.113,644.697 477.78,640.03 487.5,635C 491.761,633.637 496.095,633.304 500.5,634C 502.544,634.498 503.878,635.665 504.5,637.5 Z"/></g>
<g><path style="opacity:1" fill="#f1f1ed" d="M 406.5,639.5 C 400.605,624.488 395.272,609.155 390.5,593.5C 373.743,586.206 357.243,578.206 341,569.5C 342.999,580.47 345.333,591.47 348,602.5C 349.041,607.44 348.374,612.106 346,616.5C 325.513,633.64 305.013,650.64 284.5,667.5C 289.47,675.635 294.636,683.635 300,691.5C 303.204,702.418 299.204,709.085 288,711.5C 279.761,708.294 272.595,703.461 266.5,697C 266.728,696.601 267.062,696.435 267.5,696.5C 272.727,701.221 278.393,705.388 284.5,709C 297.249,709.58 301.749,703.747 298,691.5C 293.083,683.33 287.916,675.33 282.5,667.5C 303.201,650.058 324.035,632.725 345,615.5C 346.545,610.953 346.879,606.287 346,601.5C 343.171,589.864 340.838,578.197 339,566.5C 356.667,575.5 374.333,584.5 392,593.5C 397.135,608.763 401.969,624.096 406.5,639.5 Z"/></g>
<g><path style="opacity:1" fill="#0a100a" d="M 703.5,659.5 C 685.126,674.027 667.96,672.694 652,655.5C 641.74,638.325 643.906,622.992 658.5,609.5C 670.921,601.161 683.921,600.328 697.5,607C 712.205,617.45 716.705,631.283 711,648.5C 708.984,652.542 706.484,656.209 703.5,659.5 Z"/></g>
<g><path style="opacity:1" fill="#edede8" d="M 619.5,598.5 C 618.98,605.919 617.814,613.252 616,620.5C 606.436,662.895 596.77,705.228 587,747.5C 583.902,752.434 579.735,756.101 574.5,758.5C 574.158,757.662 573.492,757.328 572.5,757.5C 578.296,755.882 582.463,752.215 585,746.5C 596.712,697.087 608.212,647.754 619.5,598.5 Z"/></g>
<g><path style="opacity:1" fill="#f2f2ed" d="M 703.5,659.5 C 706.484,656.209 708.984,652.542 711,648.5C 716.705,631.283 712.205,617.45 697.5,607C 683.921,600.328 670.921,601.161 658.5,609.5C 658.511,607.983 659.177,606.816 660.5,606C 682.632,595.318 699.799,600.485 712,621.5C 716.922,633.317 715.922,644.65 709,655.5C 707.549,657.464 705.716,658.797 703.5,659.5 Z"/></g>
<g><path style="opacity:1" fill="#0a100b" d="M 641.5,693.5 C 658.326,693.491 666.492,701.825 666,718.5C 660.116,734.688 649.282,739.188 633.5,732C 621.928,720.962 621.594,709.629 632.5,698C 635.437,696.199 638.437,694.699 641.5,693.5 Z"/></g>
<g><path style="opacity:1" fill="#eae9e4" d="M 155.5,638.5 C 160.951,669.206 166.618,699.873 172.5,730.5C 171.883,730.611 171.383,730.944 171,731.5C 165.236,701.347 159.736,671.181 154.5,641C 154.528,639.93 154.861,639.097 155.5,638.5 Z"/></g>
<g><path style="opacity:1" fill="#d9d9d5" d="M 555.5,725.5 C 554.527,725.987 553.527,726.487 552.5,727C 437.167,727.667 321.833,727.667 206.5,727C 201.772,725.604 199.272,722.438 199,717.5C 187.841,654.551 177.007,591.551 166.5,528.5C 178.021,587.672 188.854,647.672 199,708.5C 199.803,713.657 201.136,718.657 203,723.5C 203.333,722.5 203.667,721.5 204,720.5C 204.5,721.667 205.333,722.5 206.5,723C 204.699,723.317 204.366,723.984 205.5,725C 322.387,725.493 439.054,725.659 555.5,725.5 Z"/></g>
<g><path style="opacity:1" fill="#fdfdf8" d="M 177.5,749.5 C 179.822,753.319 183.155,755.819 187.5,757C 315.833,757.5 444.166,757.667 572.5,757.5C 573.492,757.328 574.158,757.662 574.5,758.5C 445.873,759.663 317.207,759.83 188.5,759C 183.761,757.881 179.928,755.381 177,751.5C 176.308,750.563 176.475,749.897 177.5,749.5 Z"/></g>
<g><path style="opacity:1" fill="#0b110b" d="M 486.5,838.5 C 503.833,838.5 521.167,838.5 538.5,838.5C 541.769,883.731 520.769,904.898 475.5,902C 464.099,900.463 454.099,895.963 445.5,888.5C 428.191,868.443 424.024,845.776 433,820.5C 435.932,814.419 439.432,808.752 443.5,803.5C 445.833,801.833 447.833,799.833 449.5,797.5C 463.318,787.834 478.651,784.334 495.5,787C 515.592,789.598 528.925,800.431 535.5,819.5C 526.515,821.275 517.515,822.942 508.5,824.5C 505.664,815.838 499.664,811.005 490.5,810C 467.287,809.213 455.953,820.546 456.5,844C 456.8,871.34 470.467,882.34 497.5,877C 505.535,874.802 510.201,869.635 511.5,861.5C 503.167,861.5 494.833,861.5 486.5,861.5C 486.5,853.833 486.5,846.167 486.5,838.5 Z"/></g>
<g><path style="opacity:1" fill="#fefdfe" d="M 905.5,788.5 C 905.167,788.5 904.833,788.5 904.5,788.5C 873.833,788.5 843.167,788.5 812.5,788.5C 811.508,796.316 811.174,804.316 811.5,812.5C 810.507,804.35 810.174,796.017 810.5,787.5C 842.338,787.168 874.004,787.502 905.5,788.5 Z"/></g>
<g><path style="opacity:1" fill="#f4f3f0" d="M 635.5,807.5 C 630.645,802.132 626.311,796.299 622.5,790C 614.173,789.5 605.84,789.334 597.5,789.5C 596.502,826.33 596.168,863.33 596.5,900.5C 595.336,863.336 595.169,826.002 596,788.5C 604.755,787.35 613.588,787.184 622.5,788C 627.474,794.127 631.807,800.627 635.5,807.5 Z"/></g>
<g><path style="opacity:1" fill="#030502" d="M 672.5,898.5 C 679.525,898.439 686.859,898.439 694.5,898.5C 694.5,862.5 694.5,826.5 694.5,790.5C 687.167,790.5 679.833,790.5 672.5,790.5C 672.667,811.836 672.5,833.169 672,854.5C 671.722,855.416 671.222,856.082 670.5,856.5C 670.5,834.167 670.5,811.833 670.5,789.5C 679.167,789.5 687.833,789.5 696.5,789.5C 696.5,826.5 696.5,863.5 696.5,900.5C 688.826,900.666 681.159,900.5 673.5,900C 672.944,899.617 672.611,899.117 672.5,898.5 Z"/></g>
<g><path style="opacity:1" fill="#0b0c08" d="M 795.5,788.5 C 795.5,788.833 795.5,789.167 795.5,789.5C 795.5,796.833 795.5,804.167 795.5,811.5C 779.5,811.5 763.5,811.5 747.5,811.5C 762.088,810.501 777.422,810.168 793.5,810.5C 793.5,803.833 793.5,797.167 793.5,790.5C 769.5,790.5 745.5,790.5 721.5,790.5C 721.5,826.5 721.5,862.5 721.5,898.5C 746.167,898.5 770.833,898.5 795.5,898.5C 795.5,891.833 795.5,885.167 795.5,878.5C 779.163,878.667 762.83,878.5 746.5,878C 745.167,870 745.167,862 746.5,854C 760.167,853.333 773.833,853.333 787.5,854C 773.994,854.169 760.66,854.669 747.5,855.5C 747.175,863.019 747.508,870.352 748.5,877.5C 764.5,877.5 780.5,877.5 796.5,877.5C 796.5,885.167 796.5,892.833 796.5,900.5C 771.167,900.5 745.833,900.5 720.5,900.5C 720.5,863.167 720.5,825.833 720.5,788.5C 745.5,788.5 770.5,788.5 795.5,788.5 Z"/></g>
<g><path style="opacity:1" fill="#0a0b08" d="M 812.5,788.5 C 843.167,788.5 873.833,788.5 904.5,788.5C 904.5,796.167 904.5,803.833 904.5,811.5C 893.986,811.172 883.653,811.506 873.5,812.5C 872.502,841.662 872.169,870.995 872.5,900.5C 863.5,900.5 854.5,900.5 845.5,900.5C 845.831,870.995 845.498,841.662 844.5,812.5C 834.013,811.506 823.346,811.172 812.5,811.5C 812.5,803.833 812.5,796.167 812.5,788.5 Z"/></g>
<g><path style="opacity:1" fill="#0a110b" d="M 142.5,789.5 C 144.343,808.653 146.343,827.653 148.5,846.5C 149.613,864.517 150.946,882.517 152.5,900.5C 143.833,900.5 135.167,900.5 126.5,900.5C 124.744,875.499 122.91,850.499 121,825.5C 111.921,850.241 102.754,874.907 93.5,899.5C 86.2454,899.813 79.0787,899.48 72,898.5C 62.8032,873.91 53.8032,849.243 45,824.5C 42.725,849.8 40.8916,875.134 39.5,900.5C 30.8333,900.5 22.1667,900.5 13.5,900.5C 14.9776,880.48 16.6442,860.48 18.5,840.5C 19.8807,823.504 21.214,806.504 22.5,789.5C 33.8529,789.168 45.1862,789.501 56.5,790.5C 65.5027,813.843 74.5027,837.176 83.5,860.5C 92.7466,837.432 101.413,814.098 109.5,790.5C 120.48,789.501 131.48,789.168 142.5,789.5 Z"/></g>
<g><path style="opacity:1" fill="#090f09" d="M 261.5,789.5 C 270.167,789.5 278.833,789.5 287.5,789.5C 287.667,817.502 287.5,845.502 287,873.5C 283.959,890.539 273.792,900.039 256.5,902C 244.221,903.418 232.888,900.918 222.5,894.5C 220.372,891.87 218.039,889.37 215.5,887C 222.013,881.253 228.68,875.753 235.5,870.5C 240.66,877.27 247.327,879.103 255.5,876C 258.467,873.9 260.3,871.066 261,867.5C 261.5,841.502 261.667,815.502 261.5,789.5 Z"/></g>
<g><path style="opacity:1" fill="#09100a" d="M 597.5,789.5 C 605.84,789.334 614.173,789.5 622.5,790C 626.311,796.299 630.645,802.132 635.5,807.5C 641.729,818.058 648.729,828.058 656.5,837.5C 660.732,844.282 665.232,850.949 670,857.5C 670.399,857.272 670.565,856.938 670.5,856.5C 671.222,856.082 671.722,855.416 672,854.5C 672.5,833.169 672.667,811.836 672.5,790.5C 679.833,790.5 687.167,790.5 694.5,790.5C 694.5,826.5 694.5,862.5 694.5,898.5C 686.859,898.439 679.525,898.439 672.5,898.5C 669.543,894.208 666.21,890.208 662.5,886.5C 662.5,886.167 662.5,885.833 662.5,885.5C 649.833,868.5 637.167,851.5 624.5,834.5C 624.44,833.957 624.107,833.624 623.5,833.5C 622.5,855.823 622.167,878.157 622.5,900.5C 614.167,900.5 605.833,900.5 597.5,900.5C 597.5,863.5 597.5,826.5 597.5,789.5 Z"/></g>
<g><path style="opacity:1" fill="#0a110a" d="M 747.5,811.5 C 747.5,818.5 747.5,825.5 747.5,832.5C 761.833,832.5 776.167,832.5 790.5,832.5C 790.5,840.167 790.5,847.833 790.5,855.5C 776.167,855.5 761.833,855.5 747.5,855.5C 760.66,854.669 773.994,854.169 787.5,854C 773.833,853.333 760.167,853.333 746.5,854C 745.167,862 745.167,870 746.5,878C 762.83,878.5 779.163,878.667 795.5,878.5C 795.5,885.167 795.5,891.833 795.5,898.5C 770.833,898.5 746.167,898.5 721.5,898.5C 721.5,862.5 721.5,826.5 721.5,790.5C 745.5,790.5 769.5,790.5 793.5,790.5C 793.5,797.167 793.5,803.833 793.5,810.5C 777.422,810.168 762.088,810.501 747.5,811.5 Z"/></g>
<g><path style="opacity:1" fill="#0a110b" d="M 813.5,790.5 C 843.5,790.5 873.5,790.5 903.5,790.5C 903.5,797.167 903.5,803.833 903.5,810.5C 892.918,810.18 882.418,810.513 872,811.5C 871.5,840.498 871.333,869.498 871.5,898.5C 863.167,898.5 854.833,898.5 846.5,898.5C 846.667,869.498 846.5,840.498 846,811.5C 835.248,810.513 824.415,810.18 813.5,810.5C 813.5,803.833 813.5,797.167 813.5,790.5 Z"/></g>
<g><path style="opacity:1" fill="#f9f9f2" d="M 173.5,787.5 C 183.749,787.181 193.916,787.514 204,788.5C 204.827,825.875 204.66,863.208 203.5,900.5C 198.5,900.833 193.5,901.167 188.5,901.5C 183.085,901.471 177.918,900.805 173,899.5C 172.179,862.125 172.346,824.792 173.5,787.5 Z"/></g>
<g><path style="opacity:1" fill="#0a110a" d="M 174.5,789.5 C 183.833,789.5 193.167,789.5 202.5,789.5C 202.5,826.5 202.5,863.5 202.5,900.5C 193.167,900.5 183.833,900.5 174.5,900.5C 174.5,863.5 174.5,826.5 174.5,789.5 Z"/></g>
<g><path style="opacity:1" fill="#eeede8" d="M 486.5,838.5 C 486.5,846.167 486.5,853.833 486.5,861.5C 494.833,861.5 503.167,861.5 511.5,861.5C 510.201,869.635 505.535,874.802 497.5,877C 470.467,882.34 456.8,871.34 456.5,844C 455.953,820.546 467.287,809.213 490.5,810C 499.664,811.005 505.664,815.838 508.5,824.5C 517.515,822.942 526.515,821.275 535.5,819.5C 528.925,800.431 515.592,789.598 495.5,787C 478.651,784.334 463.318,787.834 449.5,797.5C 448.668,796.671 449.001,795.838 450.5,795C 473.256,781.401 496.256,781.068 519.5,794C 526.189,799.348 531.355,805.848 535,813.5C 536.318,816.406 536.652,819.406 536,822.5C 535.439,821.978 534.772,821.645 534,821.5C 524.935,823.7 515.768,824.867 506.5,825C 504.8,817.638 500.134,813.305 492.5,812C 469.408,809.585 457.741,820.085 457.5,843.5C 458.284,871.081 472.284,881.581 499.5,875C 502.444,873.321 505.277,871.154 508,868.5C 509.128,866.655 509.628,864.655 509.5,862.5C 501.167,862.5 492.833,862.5 484.5,862.5C 483.866,854.097 484.533,846.097 486.5,838.5 Z"/></g>
<g><path style="opacity:1" fill="#898978" d="M 812.5,788.5 C 812.5,796.167 812.5,803.833 812.5,811.5C 823.346,811.172 834.013,811.506 844.5,812.5C 833.5,812.5 822.5,812.5 811.5,812.5C 811.174,804.316 811.508,796.316 812.5,788.5 Z"/></g>
<g><path style="opacity:1" fill="#666758" d="M 904.5,788.5 C 904.833,788.5 905.167,788.5 905.5,788.5C 905.5,788.833 905.5,789.167 905.5,789.5C 905.5,797.167 905.5,804.833 905.5,812.5C 894.833,812.5 884.167,812.5 873.5,812.5C 883.653,811.506 893.986,811.172 904.5,811.5C 904.5,803.833 904.5,796.167 904.5,788.5 Z"/></g>
<g><path style="opacity:1" fill="#f9f9f4" d="M 795.5,789.5 C 796.821,792.598 797.488,796.098 797.5,800C 797.404,804.535 797.07,809.035 796.5,813.5C 780.5,813.5 764.5,813.5 748.5,813.5C 748.5,819.167 748.5,824.833 748.5,830.5C 762.833,830.5 777.167,830.5 791.5,830.5C 791.5,839.167 791.5,847.833 791.5,856.5C 777.167,856.5 762.833,856.5 748.5,856.5C 748.5,862.833 748.5,869.167 748.5,875.5C 764.503,875.333 780.503,875.5 796.5,876C 780.328,876.169 764.328,876.669 748.5,877.5C 747.508,870.352 747.175,863.019 747.5,855.5C 761.833,855.5 776.167,855.5 790.5,855.5C 790.5,847.833 790.5,840.167 790.5,832.5C 776.167,832.5 761.833,832.5 747.5,832.5C 747.5,825.5 747.5,818.5 747.5,811.5C 763.5,811.5 779.5,811.5 795.5,811.5C 795.5,804.167 795.5,796.833 795.5,789.5 Z"/></g>
<g><path style="opacity:1" fill="#fefefe" d="M 811.5,812.5 C 822.5,812.5 833.5,812.5 844.5,812.5C 844.5,841.833 844.5,871.167 844.5,900.5C 843.502,871.671 843.169,842.671 843.5,813.5C 832.654,813.828 821.987,813.494 811.5,812.5 Z"/></g>
<g><path style="opacity:1" fill="#f7f7f1" d="M 662.5,886.5 C 666.21,890.208 669.543,894.208 672.5,898.5C 672.611,899.117 672.944,899.617 673.5,900C 681.159,900.5 688.826,900.666 696.5,900.5C 696.5,863.5 696.5,826.5 696.5,789.5C 687.833,789.5 679.167,789.5 670.5,789.5C 670.5,811.833 670.5,834.167 670.5,856.5C 670.565,856.938 670.399,857.272 670,857.5C 665.232,850.949 660.732,844.282 656.5,837.5C 660.777,842.002 664.611,847.002 668,852.5C 668.5,830.836 668.667,809.169 668.5,787.5C 678.595,786.874 688.428,787.541 698,789.5C 698.667,826.5 698.667,863.5 698,900.5C 689.579,901.649 681.079,901.816 672.5,901C 668.299,896.765 664.966,891.932 662.5,886.5 Z"/></g>
<g><path style="opacity:1" fill="#fbfbf7" d="M 261.5,789.5 C 261.667,815.502 261.5,841.502 261,867.5C 260.3,871.066 258.467,873.9 255.5,876C 247.327,879.103 240.66,877.27 235.5,870.5C 235.56,869.957 235.893,869.624 236.5,869.5C 237.287,870.242 237.953,871.075 238.5,872C 242.381,872.683 246.047,873.85 249.5,875.5C 254.536,875.622 257.703,873.289 259,868.5C 259.175,841.791 259.675,815.124 260.5,788.5C 269.482,787.335 278.482,787.168 287.5,788C 278.657,788.17 269.99,788.67 261.5,789.5 Z"/></g>
<g><path style="opacity:1" fill="#f6f6f3" d="M 443.5,803.5 C 439.432,808.752 435.932,814.419 433,820.5C 424.024,845.776 428.191,868.443 445.5,888.5C 444.603,889.598 443.77,889.598 443,888.5C 429.456,872.672 424.456,854.339 428,833.5C 429.725,823.716 433.392,814.716 439,806.5C 440.129,804.859 441.629,803.859 443.5,803.5 Z"/></g>
<g><path style="opacity:1" fill="#eeede7" d="M 142.5,789.5 C 131.48,789.168 120.48,789.501 109.5,790.5C 101.413,814.098 92.7466,837.432 83.5,860.5C 74.5027,837.176 65.5027,813.843 56.5,790.5C 45.1862,789.501 33.8529,789.168 22.5,789.5C 21.214,806.504 19.8807,823.504 18.5,840.5C 17.7611,840.631 17.0944,840.464 16.5,840C 18.2922,822.876 19.9589,805.709 21.5,788.5C 33.5322,787.188 45.5322,787.188 57.5,788.5C 66.3218,811.482 75.1551,834.482 84,857.5C 92,834.833 100,812.167 108,789.5C 119.598,788.171 131.098,788.171 142.5,789.5 Z"/></g>
<g><path style="opacity:1" fill="#f9f9f4" d="M 287.5,789.5 C 288.833,802.65 289.499,816.15 289.5,830C 289.333,843.5 289.167,857 289,870.5C 287.06,889.105 276.893,899.939 258.5,903C 246.106,905.07 234.439,903.07 223.5,897C 222.748,896.329 222.414,895.496 222.5,894.5C 232.888,900.918 244.221,903.418 256.5,902C 273.792,900.039 283.959,890.539 287,873.5C 287.5,845.502 287.667,817.502 287.5,789.5 Z"/></g>
<g><path style="opacity:1" fill="#dadad4" d="M 597.5,789.5 C 597.5,826.5 597.5,863.5 597.5,900.5C 605.833,900.5 614.167,900.5 622.5,900.5C 623.167,878.5 623.833,856.5 624.5,834.5C 637.167,851.5 649.833,868.5 662.5,885.5C 660.983,885.489 659.816,884.823 659,883.5C 647.91,868.321 636.576,853.321 625,838.5C 624.5,859.497 624.333,880.497 624.5,901.5C 614.985,901.827 605.652,901.494 596.5,900.5C 596.168,863.33 596.502,826.33 597.5,789.5 Z"/></g>
<g><path style="opacity:1" fill="#c4c4be" d="M 905.5,789.5 C 906.492,797.316 906.826,805.316 906.5,813.5C 895.833,813.5 885.167,813.5 874.5,813.5C 874.5,842.833 874.5,872.167 874.5,901.5C 864.319,901.827 854.319,901.494 844.5,900.5C 844.5,871.167 844.5,841.833 844.5,812.5C 845.498,841.662 845.831,870.995 845.5,900.5C 854.5,900.5 863.5,900.5 872.5,900.5C 872.169,870.995 872.502,841.662 873.5,812.5C 884.167,812.5 894.833,812.5 905.5,812.5C 905.5,804.833 905.5,797.167 905.5,789.5 Z"/></g>
<g><path style="opacity:1" fill="#0c120c" d="M 562.5,870.5 C 576.725,871.317 582.558,878.651 580,892.5C 573.933,902.392 565.766,904.559 555.5,899C 548.626,892.172 547.792,884.672 553,876.5C 555.843,873.837 559.009,871.837 562.5,870.5 Z"/></g>
<g><path style="opacity:1" fill="#8e8f7c" d="M 624.5,834.5 C 623.833,856.5 623.167,878.5 622.5,900.5C 622.167,878.157 622.5,855.823 623.5,833.5C 624.107,833.624 624.44,833.957 624.5,834.5 Z"/></g>
<g><path style="opacity:1" fill="#f3f3ef" d="M 148.5,846.5 C 151.123,863.412 153.123,881.746 154.5,901.5C 144.584,901.819 134.75,901.486 125,900.5C 123.129,878.182 121.463,855.849 120,833.5C 111.598,855.539 103.098,877.539 94.5,899.5C 93.9747,900.192 93.3081,900.692 92.5,901C 85.4495,901.797 78.4495,901.63 71.5,900.5C 62.7212,877.942 54.2212,855.275 46,832.5C 44.2129,854.824 42.5463,877.158 41,899.5C 40.6174,900.056 40.1174,900.389 39.5,900.5C 40.8916,875.134 42.725,849.8 45,824.5C 53.8032,849.243 62.8032,873.91 72,898.5C 79.0787,899.48 86.2454,899.813 93.5,899.5C 102.754,874.907 111.921,850.241 121,825.5C 122.91,850.499 124.744,875.499 126.5,900.5C 135.167,900.5 143.833,900.5 152.5,900.5C 150.946,882.517 149.613,864.517 148.5,846.5 Z"/></g>
<g><path style="opacity:1" fill="#f0f0ea" d="M 795.5,788.5 C 770.5,788.5 745.5,788.5 720.5,788.5C 720.5,825.833 720.5,863.167 720.5,900.5C 745.833,900.5 771.167,900.5 796.5,900.5C 797.329,893.011 797.829,885.344 798,877.5C 798.5,885.827 798.666,894.16 798.5,902.5C 771.839,901.786 745.173,901.452 718.5,901.5C 718.5,863.5 718.5,825.5 718.5,787.5C 744.908,787.167 770.575,787.501 795.5,788.5 Z"/></g>
<g><path style="opacity:1" fill="#f2f2ed" d="M 339.5,788.5 C 330.5,788.5 321.5,788.5 312.5,788.5C 312.169,814.005 312.502,839.339 313.5,864.5C 314.994,882.978 324.66,894.811 342.5,900C 357.682,903.657 372.682,902.99 387.5,898C 401.507,891.303 409.34,880.136 411,864.5C 411.5,839.502 411.667,814.502 411.5,789.5C 402.5,789.5 393.5,789.5 384.5,789.5C 388.783,788.173 393.449,787.507 398.5,787.5C 403.413,787.513 408.247,787.846 413,788.5C 413.936,815.198 413.602,841.865 412,868.5C 408.409,886.093 397.909,897.259 380.5,902C 362.323,906.395 344.99,904.228 328.5,895.5C 319.444,888.274 313.944,878.94 312,867.5C 311.5,840.835 311.333,814.169 311.5,787.5C 321.015,787.173 330.348,787.506 339.5,788.5 Z"/></g>
<g><path style="opacity:1" fill="#7c7d6b" d="M 339.5,788.5 C 339.5,788.833 339.5,789.167 339.5,789.5C 330.833,789.5 322.167,789.5 313.5,789.5C 313.5,814.5 313.5,839.5 313.5,864.5C 312.502,839.339 312.169,814.005 312.5,788.5C 321.5,788.5 330.5,788.5 339.5,788.5 Z"/></g>
<g><path style="opacity:1" fill="#0a100a" d="M 339.5,789.5 C 339.046,815.543 339.546,841.543 341,867.5C 345.534,875.187 352.367,878.854 361.5,878.5C 367.601,878.581 373.268,877.081 378.5,874C 381.231,871.374 383.064,868.207 384,864.5C 384.5,839.502 384.667,814.502 384.5,789.5C 393.5,789.5 402.5,789.5 411.5,789.5C 411.667,814.502 411.5,839.502 411,864.5C 409.34,880.136 401.507,891.303 387.5,898C 372.682,902.99 357.682,903.657 342.5,900C 324.66,894.811 314.994,882.978 313.5,864.5C 313.5,839.5 313.5,814.5 313.5,789.5C 322.167,789.5 330.833,789.5 339.5,789.5 Z"/></g>
</svg>
