<?xml version="1.0" encoding="UTF-8"?>
<!DOCTYPE svg PUBLIC "-//W3C//DTD SVG 1.1//EN" "http://www.w3.org/Graphics/SVG/1.1/DTD/svg11.dtd">
<svg xmlns="http://www.w3.org/2000/svg" version="1.1" width="177px" height="180px" style="shape-rendering:geometricPrecision; text-rendering:geometricPrecision; image-rendering:optimizeQuality; fill-rule:evenodd; clip-rule:evenodd" xmlns:xlink="http://www.w3.org/1999/xlink">
<g><path style="opacity:1" fill="#fbfbe9" d="M -0.5,-0.5 C 58.5,-0.5 117.5,-0.5 176.5,-0.5C 176.5,59.5 176.5,119.5 176.5,179.5C 117.5,179.5 58.5,179.5 -0.5,179.5C -0.5,119.5 -0.5,59.5 -0.5,-0.5 Z"/></g>
<g><path style="opacity:1" fill="#0e130e" d="M 33.5,2.5 C 62.8333,2.5 92.1667,2.5 121.5,2.5C 121.67,3.82207 121.337,4.98873 120.5,6C 111.283,7.58962 102.283,9.92295 93.5,13C 93,13.5 92.5,14 92,14.5C 91.3333,23.1667 91.3333,31.8333 92,40.5C 97.0595,44.2846 102.559,47.4512 108.5,50C 114.289,53.4547 119.122,57.9547 123,63.5C 124.167,67.6667 122.667,69.1667 118.5,68C 102.349,50.0464 82.6828,44.3797 59.5,51C 38.8439,60.1464 29.3439,75.9797 31,98.5C 33.3187,112.077 35.8187,125.577 38.5,139C 61.1667,139.667 83.8333,139.667 106.5,139C 109.383,126.217 112.216,113.383 115,100.5C 116.667,99.1667 118.333,99.1667 120,100.5C 120.667,103.167 120.667,105.833 120,108.5C 117.194,118.724 114.861,129.058 113,139.5C 112.55,141.519 111.717,143.352 110.5,145C 85.1667,145.667 59.8333,145.667 34.5,145C 30.691,128.694 27.5243,112.194 25,95.5C 23.4817,77.3723 29.9817,62.8723 44.5,52C 50.7506,48.2919 56.9173,44.4586 63,40.5C 63.6667,31.8333 63.6667,23.1667 63,14.5C 62.1667,13.6667 61.3333,12.8333 60.5,12C 51.7147,10.5096 43.0481,8.50964 34.5,6C 33.6634,4.98873 33.33,3.82207 33.5,2.5 Z"/></g>
<g><path style="opacity:1" fill="#0e130f" d="M 72.5,56.5 C 82.9622,55.609 88.1289,60.2757 88,70.5C 86.1502,76.0164 82.3169,78.8498 76.5,79C 80.3244,82.0791 84.3244,84.9124 88.5,87.5C 94.9136,84.9667 97.2469,80.3001 95.5,73.5C 96.5,73.5 97.5,73.5 98.5,73.5C 98.2148,75.288 98.5481,76.9547 99.5,78.5C 101.5,76.1667 103.5,73.8333 105.5,71.5C 105.833,72 106.167,72.5 106.5,73C 105.44,75.2513 104.607,77.4179 104,79.5C 106.156,76.8431 108.656,75.5098 111.5,75.5C 110.018,77.4829 108.351,79.3163 106.5,81C 114.311,81.8214 114.311,83.1547 106.5,85C 108.384,85.2163 110.051,85.883 111.5,87C 107.5,87.3333 103.5,87.6667 99.5,88C 95.9374,91.2335 92.1041,94.0668 88,96.5C 83.8359,94.419 79.8359,92.0857 76,89.5C 73.5952,92.6333 71.4286,95.9667 69.5,99.5C 73.5036,102.662 77.6703,105.662 82,108.5C 83.8461,114.216 85.8461,119.883 88,125.5C 90.4916,123.503 93.325,122.503 96.5,122.5C 96.7035,124.39 96.0368,125.89 94.5,127C 90.8333,129.5 87.1667,132 83.5,134.5C 82.5224,134.023 81.6891,133.357 81,132.5C 79,126.5 77,120.5 75,114.5C 71.6929,112.255 68.1929,110.755 64.5,110C 65.883,112.694 66.383,115.527 66,118.5C 61.5916,121.44 57.7582,124.94 54.5,129C 56.1109,131.21 56.7776,133.71 56.5,136.5C 51.497,134.982 47.497,131.982 44.5,127.5C 48.3659,123.47 52.0325,119.303 55.5,115C 53.7573,110.44 52.424,105.773 51.5,101C 52.4686,96.2628 54.1353,91.7628 56.5,87.5C 54.1595,86.2885 51.9928,86.6218 50,88.5C 48.6199,91.4282 47.1199,94.2616 45.5,97C 46.4929,99.4528 46.6595,101.953 46,104.5C 45.0766,103.241 44.2432,101.908 43.5,100.5C 42.1869,107.416 41.0202,107.749 40,101.5C 39.2681,103.923 37.7681,105.09 35.5,105C 36.376,103.414 37.376,101.914 38.5,100.5C 37.336,100.835 36.0026,100.835 34.5,100.5C 35.8651,99.059 37.3651,97.7256 39,96.5C 40.9303,90.8036 43.7636,85.6369 47.5,81C 54.021,78.3262 60.6876,76.1595 67.5,74.5C 63.6923,66.8842 65.359,60.8842 72.5,56.5 Z"/></g>
<g><path style="opacity:1" fill="#0f130f" d="M 119.5,74.5 C 123.641,74.5759 125.308,76.7426 124.5,81C 124.66,85.7065 122.993,89.5398 119.5,92.5C 119.167,91.8333 118.833,91.1667 118.5,90.5C 119.79,87.5891 120.79,84.5891 121.5,81.5C 120.818,79.1591 120.151,76.8257 119.5,74.5 Z"/></g>
<g><path style="opacity:1" fill="#131613" d="M 127.5,68.5 C 130.888,68.8739 132.722,70.8739 133,74.5C 134.141,81.8161 133.141,88.8161 130,95.5C 128.736,97.607 126.903,98.607 124.5,98.5C 125.691,95.1112 127.191,91.7779 129,88.5C 129.871,81.6875 129.371,75.0208 127.5,68.5 Z"/></g>
<g><path style="opacity:1" fill="#121512" d="M 133.5,60.5 C 134.978,60.238 136.311,60.5713 137.5,61.5C 146.312,77.7525 144.979,93.0858 133.5,107.5C 132.28,107.113 131.613,106.28 131.5,105C 138.685,94.7866 140.851,83.62 138,71.5C 135.928,68.0288 134.428,64.3621 133.5,60.5 Z"/></g>
<g><path style="opacity:1" fill="#101511" d="M 127.5,115.5 C 135.543,116.02 137.876,119.854 134.5,127C 126.809,130.306 123.309,127.806 124,119.5C 125.376,118.295 126.542,116.962 127.5,115.5 Z"/></g>
<g><path style="opacity:1" fill="#121512" d="M 121.5,133.5 C 127.488,133.664 128.821,136.164 125.5,141C 119.403,141.147 118.07,138.647 121.5,133.5 Z"/></g>
<g><path style="opacity:1" fill="#61635c" d="M 10.5,152.5 C 8.5,152.5 6.5,152.5 4.5,152.5C 4.73731,153.791 4.40397,154.791 3.5,155.5C 4.40397,154.791 4.73731,153.791 4.5,152.5C 6.5,152.5 8.5,152.5 10.5,152.5 Z"/></g>
<g><path style="opacity:1" fill="#444742" d="M 155.5,152.5 C 161.31,151.51 167.31,151.177 173.5,151.5C 173.5,153.167 173.5,154.833 173.5,156.5C 171.5,156.5 169.5,156.5 167.5,156.5C 168.919,155.549 170.585,155.216 172.5,155.5C 172.5,154.5 172.5,153.5 172.5,152.5C 166.833,152.5 161.167,152.5 155.5,152.5 Z"/></g>
<g><path style="opacity:1" fill="#121512" d="M 97.5,166.5 C 96.4324,165.566 95.099,165.232 93.5,165.5C 93.5,164.167 93.5,162.833 93.5,161.5C 96.5,161.5 99.5,161.5 102.5,161.5C 102.873,171.923 97.873,175.756 87.5,173C 79.2544,165.507 79.5877,158.507 88.5,152C 94.6947,150.273 99.3614,152.106 102.5,157.5C 101.5,157.833 100.5,158.167 99.5,158.5C 90.5388,153.268 86.7055,155.935 88,166.5C 91.2936,170.473 94.4603,170.473 97.5,166.5 Z"/></g>
<g><path style="opacity:1" fill="#141714" d="M 3.5,155.5 C 4.40397,154.791 4.73731,153.791 4.5,152.5C 6.5,152.5 8.5,152.5 10.5,152.5C 12.1618,156.481 13.8284,160.481 15.5,164.5C 17.5545,160.672 19.2212,156.672 20.5,152.5C 22.6948,151.231 24.8615,151.231 27,152.5C 27.7714,159.485 28.2714,166.485 28.5,173.5C 26.8333,173.5 25.1667,173.5 23.5,173.5C 23.8266,168.786 23.4933,164.12 22.5,159.5C 21.0999,163.533 19.5999,167.533 18,171.5C 16.8469,173.497 15.3469,173.83 13.5,172.5C 12.028,168.083 10.3613,163.749 8.5,159.5C 7.50671,164.12 7.17338,168.786 7.5,173.5C 5.83333,173.5 4.16667,173.5 2.5,173.5C 2.42547,167.471 2.7588,161.471 3.5,155.5 Z"/></g>
<g><path style="opacity:1" fill="#96988f" d="M 38.5,152.5 C 36.8333,152.5 35.1667,152.5 33.5,152.5C 33.5,159.5 33.5,166.5 33.5,173.5C 32.5084,166.352 32.175,159.019 32.5,151.5C 34.7354,151.205 36.7354,151.539 38.5,152.5 Z"/></g>
<g><path style="opacity:1" fill="#0d120d" d="M 38.5,152.5 C 38.5,159.5 38.5,166.5 38.5,173.5C 36.8333,173.5 35.1667,173.5 33.5,173.5C 33.5,166.5 33.5,159.5 33.5,152.5C 35.1667,152.5 36.8333,152.5 38.5,152.5 Z"/></g>
<g><path style="opacity:1" fill="#525650" d="M 54.5,152.5 C 53.1667,152.5 51.8333,152.5 50.5,152.5C 50.8205,157.695 50.4872,162.695 49.5,167.5C 49.5,162.167 49.5,156.833 49.5,151.5C 51.4147,151.216 53.0813,151.549 54.5,152.5 Z"/></g>
<g><path style="opacity:1" fill="#0d110d" d="M 54.5,152.5 C 54.6662,158.509 54.4995,164.509 54,170.5C 51.0052,173.265 47.5052,174.098 43.5,173C 40.9912,170.91 41.3246,169.077 44.5,167.5C 46.3163,168.735 47.983,168.735 49.5,167.5C 50.4872,162.695 50.8205,157.695 50.5,152.5C 51.8333,152.5 53.1667,152.5 54.5,152.5 Z"/></g>
<g><path style="opacity:1" fill="#424640" d="M 64.5,152.5 C 63.1667,152.5 61.8333,152.5 60.5,152.5C 60.5,157.833 60.5,163.167 60.5,168.5C 59.5111,163.025 59.1778,157.358 59.5,151.5C 61.4147,151.216 63.0813,151.549 64.5,152.5 Z"/></g>
<g><path style="opacity:1" fill="#0f130f" d="M 60.5,168.5 C 60.5,163.167 60.5,157.833 60.5,152.5C 61.8333,152.5 63.1667,152.5 64.5,152.5C 64.3341,157.511 64.5007,162.511 65,167.5C 67.6667,168.833 70.3333,168.833 73,167.5C 73.4994,162.177 73.666,156.844 73.5,151.5C 75.1667,151.5 76.8333,151.5 78.5,151.5C 78.6661,157.176 78.4994,162.843 78,168.5C 77.5348,169.931 76.7014,171.097 75.5,172C 71.9613,173.504 68.2946,173.837 64.5,173C 62.249,172.252 60.9156,170.752 60.5,168.5 Z"/></g>
<g><path style="opacity:1" fill="#aaab9f" d="M 119.5,152.5 C 117.833,152.5 116.167,152.5 114.5,152.5C 114.5,159.167 114.5,165.833 114.5,172.5C 114.5,172.833 114.5,173.167 114.5,173.5C 113.508,166.352 113.175,159.019 113.5,151.5C 115.735,151.205 117.735,151.539 119.5,152.5 Z"/></g>
<g><path style="opacity:1" fill="#090f0a" d="M 119.5,152.5 C 122.078,156.646 124.911,160.646 128,164.5C 128.499,160.514 128.666,156.514 128.5,152.5C 129.833,152.5 131.167,152.5 132.5,152.5C 132.5,159.167 132.5,165.833 132.5,172.5C 131.167,172.5 129.833,172.5 128.5,172.5C 125.601,169.048 122.934,165.382 120.5,161.5C 120.44,160.957 120.107,160.624 119.5,160.5C 118.509,164.445 118.176,168.445 118.5,172.5C 117.167,172.5 115.833,172.5 114.5,172.5C 114.5,165.833 114.5,159.167 114.5,152.5C 116.167,152.5 117.833,152.5 119.5,152.5 Z"/></g>
<g><path style="opacity:1" fill="#545751" d="M 143.5,156.5 C 145.948,155.527 148.615,155.194 151.5,155.5C 151.5,154.5 151.5,153.5 151.5,152.5C 147.167,152.5 142.833,152.5 138.5,152.5C 138.5,159.167 138.5,165.833 138.5,172.5C 143.167,172.5 147.833,172.5 152.5,172.5C 147.695,173.487 142.695,173.821 137.5,173.5C 137.5,166.167 137.5,158.833 137.5,151.5C 142.5,151.5 147.5,151.5 152.5,151.5C 152.5,153.167 152.5,154.833 152.5,156.5C 149.5,156.5 146.5,156.5 143.5,156.5 Z"/></g>
<g><path style="opacity:1" fill="#0d110e" d="M 143.5,156.5 C 142.566,157.568 142.232,158.901 142.5,160.5C 145.5,160.5 148.5,160.5 151.5,160.5C 151.5,161.833 151.5,163.167 151.5,164.5C 148.5,164.5 145.5,164.5 142.5,164.5C 142.5,165.833 142.5,167.167 142.5,168.5C 145.833,168.5 149.167,168.5 152.5,168.5C 152.5,169.833 152.5,171.167 152.5,172.5C 147.833,172.5 143.167,172.5 138.5,172.5C 138.5,165.833 138.5,159.167 138.5,152.5C 142.833,152.5 147.167,152.5 151.5,152.5C 151.5,153.5 151.5,154.5 151.5,155.5C 148.615,155.194 145.948,155.527 143.5,156.5 Z"/></g>
<g><path style="opacity:1" fill="#0b100b" d="M 155.5,152.5 C 161.167,152.5 166.833,152.5 172.5,152.5C 172.5,153.5 172.5,154.5 172.5,155.5C 170.585,155.216 168.919,155.549 167.5,156.5C 166.512,161.64 166.179,166.974 166.5,172.5C 165.167,172.5 163.833,172.5 162.5,172.5C 162.821,166.974 162.488,161.64 161.5,156.5C 159.5,156.5 157.5,156.5 155.5,156.5C 155.5,155.167 155.5,153.833 155.5,152.5 Z"/></g>
<g><path style="opacity:1" fill="#a0a199" d="M 143.5,156.5 C 143.5,157.5 143.5,158.5 143.5,159.5C 146.385,159.194 149.052,159.527 151.5,160.5C 148.5,160.5 145.5,160.5 142.5,160.5C 142.232,158.901 142.566,157.568 143.5,156.5 Z"/></g>
<g><path style="opacity:1" fill="#52554e" d="M 120.5,161.5 C 119.517,165.298 119.183,169.298 119.5,173.5C 117.833,173.5 116.167,173.5 114.5,173.5C 114.5,173.167 114.5,172.833 114.5,172.5C 115.833,172.5 117.167,172.5 118.5,172.5C 118.176,168.445 118.509,164.445 119.5,160.5C 120.107,160.624 120.44,160.957 120.5,161.5 Z"/></g>
<g><path style="opacity:1" fill="#555851" d="M 161.5,156.5 C 162.488,161.64 162.821,166.974 162.5,172.5C 163.833,172.5 165.167,172.5 166.5,172.5C 166.179,166.974 166.512,161.64 167.5,156.5C 167.5,162.167 167.5,167.833 167.5,173.5C 165.5,173.5 163.5,173.5 161.5,173.5C 161.5,167.833 161.5,162.167 161.5,156.5 Z"/></g>
<g><path style="opacity:1" fill="#a3a399" d="M 93.5,161.5 C 93.5,162.833 93.5,164.167 93.5,165.5C 95.099,165.232 96.4324,165.566 97.5,166.5C 95.8333,166.5 94.1667,166.5 92.5,166.5C 92.2155,164.585 92.5489,162.919 93.5,161.5 Z"/></g>
<g><path style="opacity:1" fill="#3d403c" d="M 128.5,152.5 C 129.919,151.549 131.585,151.216 133.5,151.5C 133.5,158.833 133.5,166.167 133.5,173.5C 131.585,173.784 129.919,173.451 128.5,172.5C 129.833,172.5 131.167,172.5 132.5,172.5C 132.5,165.833 132.5,159.167 132.5,152.5C 131.167,152.5 129.833,152.5 128.5,152.5 Z"/></g>
<g><path style="opacity:1" fill="#0d110d" d="M 106.5,167.5 C 110.35,167.701 111.35,169.534 109.5,173C 105.537,173.118 104.537,171.284 106.5,167.5 Z"/></g>
</svg>
